# Blender v2.79 (sub 0) OBJ File: 'house.blend'
# www.blender.org
mtllib little_house_roof.mtl
o roof_Cube
v 1.281473 1.747449 -0.218659
v 1.281472 1.747449 0.236381
v -1.260690 1.747449 0.236381
v -1.260689 1.747449 -0.218660
v 1.281472 1.747449 0.008861
v -1.260689 1.747449 0.008860
v 1.128675 1.242032 -0.908755
v 1.128675 1.242032 0.926477
v -1.107892 1.242032 0.926477
v -1.107892 1.242032 -0.908756
v -1.107892 1.242032 0.008860
v 1.128675 1.242032 0.008861
v 1.656730 1.254102 -1.342055
v 1.656729 1.254102 1.359777
v -1.635947 1.254102 1.359776
v -1.635947 1.254102 -1.342056
v -1.635947 1.254102 0.008860
v 1.656730 1.254102 0.008861
v -0.794086 1.747449 -0.218659
v -0.794087 1.747449 0.236381
v -0.794086 1.747449 0.008861
v -1.167968 1.252168 0.279006
v -0.697379 1.242032 -0.908756
v -0.845863 1.242032 0.926477
v -1.031590 1.254102 -1.342056
v -1.031590 1.254102 1.359776
v -0.330395 1.747449 0.008861
v -0.330395 1.747449 -0.218659
v -0.330396 1.747449 0.236381
v 1.188751 1.252168 0.279006
v -0.289429 1.242032 -0.908756
v -0.431037 1.242032 0.926477
v -0.431004 1.254102 -1.342055
v -0.431005 1.254102 1.359777
v 0.651191 1.747449 0.008861
v 0.651191 1.747449 -0.218659
v 0.651190 1.747449 0.236381
v -1.167968 1.252168 0.780705
v 0.574160 1.242032 -0.908756
v 0.518787 1.242032 0.926477
v 0.840373 1.254102 -1.342055
v 0.840371 1.254102 1.359777
v 1.046890 1.747449 0.008861
v 1.046890 1.747449 -0.218659
v 1.046889 1.747449 0.236381
v 1.188751 1.252168 0.780705
v 0.922292 1.242032 -0.908756
v 0.901682 1.242032 0.926477
v 1.352893 1.254102 -1.342055
v 1.352891 1.254102 1.359777
v -0.101701 1.747449 -0.218659
v -0.101702 1.747449 0.236381
v 0.291085 1.252168 0.975773
v -0.088226 1.242032 -0.908756
v -0.209743 1.242032 0.926477
v -0.134793 1.254102 -1.342055
v -0.134794 1.254102 1.359777
v -0.101701 1.747449 0.008861
v 0.388194 1.747449 0.008861
v 0.388195 1.747449 -0.218659
v 0.388194 1.747449 0.236381
v 0.360635 1.252168 -0.958052
v 0.342779 1.242032 -0.908756
v 0.264301 1.242032 0.926477
v 0.499732 1.254102 -1.342055
v 0.499731 1.254102 1.359777
v 1.281472 1.747449 0.189192
v -1.260690 1.747449 0.189191
v -1.107892 1.242032 0.741268
v 1.128675 1.242032 0.741269
v -1.635947 1.254102 1.087908
v 1.656729 1.254102 1.087908
v -0.794086 1.747449 0.189191
v -0.093524 1.252168 -0.958052
v -0.201216 1.252168 0.975773
v -0.330396 1.747449 0.189191
v 0.651190 1.747449 0.189191
v 0.953016 1.252168 0.975773
v 0.971281 1.252168 -0.958051
v 1.046889 1.747449 0.189191
v -0.101701 1.747449 0.189191
v 0.388194 1.747449 0.189191
v 1.506627 1.451440 -0.892697
v 1.506626 1.451440 0.910419
v -1.485844 1.451440 0.910418
v -1.485844 1.451440 -0.892697
v -1.485844 1.451440 0.008860
v 1.506627 1.451440 0.008861
v -0.936588 1.451440 -0.892697
v -0.936589 1.451440 0.910418
v -0.390761 1.451440 0.910418
v -0.390760 1.451440 -0.892697
v 0.764700 1.451440 -0.892697
v 0.764699 1.451440 0.910418
v 1.230490 1.451440 0.910419
v 1.230492 1.451440 -0.892697
v -0.121556 1.451440 -0.892697
v -0.121557 1.451440 0.910418
v 0.455116 1.451440 0.910418
v 0.455117 1.451440 -0.892697
v -1.485844 1.451440 0.728421
v 1.506626 1.451440 0.728422
v 1.405308 1.584644 -0.589380
v 1.405307 1.584644 0.607102
v -1.384525 1.584644 0.607101
v -1.384524 1.584644 -0.589380
v -0.872462 1.584644 -0.589380
v -0.363596 1.584644 -0.589380
v 0.713621 1.584644 -0.589380
v 1.147871 1.584644 -0.589380
v -0.112621 1.584644 -0.589380
v 0.425002 1.584644 -0.589380
v -1.384524 1.584644 0.008860
v 1.405307 1.584644 0.008861
v -0.872463 1.584644 0.607101
v -0.363597 1.584644 0.607101
v 0.713620 1.584644 0.607102
v 1.147870 1.584644 0.607102
v -0.112622 1.584644 0.607101
v 0.425001 1.584644 0.607102
v -1.384525 1.584644 0.485768
v 1.405307 1.584644 0.485768
v 0.672776 1.837845 0.655782
v 0.707459 1.837845 0.861738
v 0.478427 1.837845 0.655782
v 0.498876 1.837845 0.861738
v -1.260689 1.747449 0.071976
v -1.107892 1.242032 0.265203
v -1.635947 1.254102 0.386527
v 0.604447 1.252168 -0.958052
v 0.555373 1.252168 0.975773
v -0.431034 1.252168 0.975773
v -0.305535 1.252168 -0.958052
v -0.735402 1.252168 -0.958052
v -0.866993 1.252168 0.975773
v 1.281472 1.747449 0.071977
v 1.128675 1.242032 0.265204
v 1.656730 1.254102 0.386528
v -0.794086 1.747449 0.071976
v -0.330395 1.747449 0.071976
v 0.651191 1.747449 0.071977
v 1.046889 1.747449 0.071977
v -0.101701 1.747449 0.071976
v 0.388194 1.747449 0.071977
v 1.506627 1.451440 0.260707
v -1.485844 1.451440 0.260707
v 1.405307 1.584644 0.175778
v -1.384524 1.584644 0.175778
v -1.260689 1.747449 -0.059396
v 1.281473 1.747449 -0.059395
v 1.128675 1.242032 -0.266424
v -1.107892 1.242032 -0.266425
v 1.656730 1.254102 -0.396414
v -1.635947 1.254102 -0.396414
v -1.167968 1.252168 -0.958052
v -0.794086 1.747449 -0.059395
v -0.330395 1.747449 -0.059395
v -1.167968 1.252168 0.975773
v 1.188751 1.252168 0.975773
v 0.651191 1.747449 -0.059395
v 1.046890 1.747449 -0.059395
v 1.188751 1.252168 -0.958051
v 1.188751 1.252168 0.008861
v -0.101701 1.747449 -0.059395
v 0.388194 1.747449 -0.059395
v -1.167968 1.252168 0.008860
v 1.506627 1.451440 -0.261606
v -1.485844 1.451440 -0.261607
v 1.405308 1.584644 -0.170611
v -1.384524 1.584644 -0.170612
v 0.713620 1.837845 0.607102
v 0.764699 1.837845 0.910418
v 0.425001 1.837845 0.607102
v 0.455116 1.837845 0.910418
v 0.672776 1.794144 0.655782
v 0.707459 1.794144 0.861738
v 0.478427 1.794144 0.655782
v 0.498876 1.794144 0.861738
v -1.167968 1.252168 -0.281213
v 1.188751 1.252168 -0.281213
vt 0.416039 0.495279
vt 0.451617 0.499235
vt 0.450829 0.502826
vt 0.628149 0.532958
vt 0.611055 0.547013
vt 0.629693 0.524744
vt 0.450563 0.466715
vt 0.417082 0.491889
vt 0.412591 0.462348
vt 0.395988 0.518922
vt 0.409756 0.524626
vt 0.394835 0.549228
vt 0.414054 0.503741
vt 0.398563 0.505220
vt 0.401627 0.492492
vt 0.604609 0.567469
vt 0.619871 0.567340
vt 0.615247 0.580106
vt 0.411930 0.513341
vt 0.447667 0.516447
vt 0.446396 0.521568
vt 0.370763 0.658869
vt 0.340923 0.609030
vt 0.347873 0.602883
vt 0.389928 0.604922
vt 0.385537 0.567352
vt 0.415123 0.581132
vt 0.689391 0.631333
vt 0.651515 0.578247
vt 0.704436 0.596870
vt 0.317511 0.450771
vt 0.364660 0.498361
vt 0.306983 0.487755
vt 0.362941 0.535693
vt 0.302025 0.526208
vt 0.433996 0.404127
vt 0.387143 0.386658
vt 0.420988 0.349851
vt 0.654347 0.500228
vt 0.688884 0.472400
vt 0.707229 0.489526
vt 0.494848 0.388657
vt 0.491033 0.331031
vt 0.431294 0.642354
vt 0.454761 0.600213
vt 0.421850 0.693620
vt 0.369011 0.667203
vt 0.483751 0.525608
vt 0.482311 0.530970
vt 0.492927 0.472504
vt 0.488348 0.507467
vt 0.487429 0.511255
vt 0.507181 0.512338
vt 0.506102 0.516159
vt 0.515093 0.477142
vt 0.502050 0.530624
vt 0.500522 0.536041
vt 0.450273 0.703503
vt 0.420705 0.701296
vt 0.460859 0.655534
vt 0.477942 0.608358
vt 0.530266 0.331693
vt 0.686731 0.437064
vt 0.631673 0.448510
vt 0.647306 0.385971
vt 0.585974 0.623659
vt 0.562237 0.662535
vt 0.553937 0.622432
vt 0.593378 0.706767
vt 0.547560 0.713525
vt 0.595639 0.698340
vt 0.559458 0.553351
vt 0.589741 0.557403
vt 0.588212 0.562204
vt 0.595079 0.541447
vt 0.582820 0.502170
vt 0.612973 0.517465
vt 0.565332 0.534921
vt 0.593923 0.544786
vt 0.610238 0.550305
vt 0.606192 0.562750
vt 0.616116 0.686041
vt 0.611699 0.677626
vt 0.600287 0.626027
vt 0.593313 0.646653
vt 0.648737 0.484491
vt 0.503466 0.525595
vt 0.545414 0.528241
vt 0.542485 0.537277
vt 0.376531 0.580354
vt 0.612306 0.359400
vt 0.531869 0.392121
vt 0.528124 0.619885
vt 0.510241 0.722674
vt 0.513250 0.715732
vt 0.696997 0.634809
vt 0.712225 0.599635
vt 0.540984 0.542146
vt 0.539403 0.547415
vt 0.546619 0.524592
vt 0.559636 0.492922
vt 0.308200 0.448656
vt 0.298511 0.486183
vt 0.566521 0.531446
vt 0.561004 0.548289
vt 0.293417 0.525389
vt 0.544586 0.721339
vt 0.529161 0.666646
vt 0.604661 0.423796
vt 0.383649 0.374929
vt 0.420091 0.341476
vt 0.562477 0.543615
vt 0.591185 0.552962
vt 0.607650 0.558369
vt 0.698599 0.465518
vt 0.716679 0.491619
vt 0.490005 0.322391
vt 0.485055 0.520626
vt 0.448809 0.511689
vt 0.658555 0.544465
vt 0.713510 0.561755
vt 0.404512 0.426412
vt 0.361620 0.390554
vt 0.409542 0.470391
vt 0.623634 0.555199
vt 0.530198 0.322580
vt 0.641079 0.518535
vt 0.410892 0.440714
vt 0.410831 0.421486
vt 0.553523 0.596650
vt 0.530810 0.592067
vt 0.599136 0.479513
vt 0.575952 0.468069
vt 0.486884 0.580792
vt 0.601276 0.606306
vt 0.584535 0.602150
vt 0.642233 0.507972
vt 0.652071 0.493903
vt 0.627957 0.500392
vt 0.466486 0.574518
vt 0.495218 0.442416
vt 0.447284 0.440627
vt 0.428558 0.560749
vt 0.623494 0.591498
vt 0.634727 0.610362
vt 0.391333 0.482167
vt 0.376216 0.464335
vt 0.443255 0.533504
vt 0.478785 0.543491
vt 0.496969 0.548689
vt 0.584828 0.573286
vt 0.556047 0.565232
vt 0.600866 0.578115
vt 0.535849 0.559745
vt 0.637287 0.551747
vt 0.405967 0.450687
vt 0.579390 0.489701
vt 0.521478 0.447339
vt 0.631791 0.571401
vt 0.385859 0.502569
vt 0.382757 0.524727
vt 0.578543 0.488802
vt 0.579294 0.489159
vt 0.579358 0.489411
vt 0.579056 0.487602
vt 0.580522 0.488505
vt 0.578146 0.488874
vt 0.690150 0.426795
vt 0.648800 0.375645
vt 0.413026 0.508364
vt 0.602105 0.641209
vt 0.612254 0.349564
vt 0.722175 0.564591
vt 0.351990 0.386971
vt 0.580055 0.488569
vt 0.579118 0.487911
vt 0.579203 0.488173
vt 0.579800 0.488637
vt 0.578765 0.488734
vt 0.449152 0.710558
vn 0.0000 1.0000 0.0000
vn 0.7959 0.6054 0.0000
vn -0.0000 0.9156 0.4021
vn -0.7959 0.6054 0.0000
vn 0.0000 -0.9795 -0.2014
vn 0.0000 0.9156 -0.4021
vn 0.0041 -1.0000 -0.0000
vn -0.0041 -1.0000 0.0000
vn 0.0000 -1.0000 0.0050
vn 0.0000 -1.0000 -0.0050
vn 0.1664 -0.9861 -0.0000
vn -0.1664 -0.9861 0.0000
vn -0.0000 -0.9795 0.2014
vn 0.0000 0.0000 -1.0000
vn -0.0000 0.0000 1.0000
vn 0.9861 0.0000 -0.1661
vn -0.9951 0.0000 0.0988
vn 0.9951 0.0000 -0.0988
vn -0.9861 0.0000 0.1661
usemtl Material
s off
f 68/1/1 20/2/1 73/3/1
f 122/4/2 2/5/2 104/6/2
f 115/7/3 3/8/3 105/9/3
f 170/10/4 4/11/4 106/12/4
f 127/13/4 113/14/4 148/15/4
f 150/16/2 114/17/2 169/18/2
f 149/19/1 21/20/1 156/21/1
f 134/22/5 10/23/5 155/24/5
f 25/25/6 86/26/6 89/27/6
f 180/28/7 18/29/7 163/30/7
f 22/31/8 17/32/8 166/33/8
f 154/34/8 155/24/8 179/35/8
f 26/36/9 158/37/9 135/38/9
f 72/39/7 159/40/7 46/41/7
f 34/42/9 135/38/9 132/43/9
f 33/44/6 89/27/6 92/45/6
f 133/46/5 23/47/5 134/22/5
f 156/21/1 27/48/1 157/49/1
f 116/50/3 20/2/3 115/7/3
f 73/3/1 29/51/1 76/52/1
f 76/52/1 52/53/1 81/54/1
f 119/55/3 29/51/3 116/50/3
f 157/49/1 58/56/1 164/57/1
f 74/58/5 31/59/5 133/46/5
f 56/60/6 92/45/6 97/61/6
f 75/62/9 34/42/9 132/43/9
f 78/63/9 42/64/9 131/65/9
f 96/66/6 41/67/6 93/68/6
f 47/69/5 130/70/5 79/71/5
f 160/72/1 43/73/1 161/74/1
f 45/75/3 117/76/3 118/77/3
f 77/78/1 45/75/1 80/79/1
f 80/79/1 2/5/1 67/80/1
f 2/5/3 118/77/3 104/6/3
f 161/74/1 5/81/1 150/16/1
f 7/82/5 79/71/5 162/83/5
f 83/84/6 49/85/6 96/66/6
f 159/40/9 50/86/9 78/63/9
f 143/87/1 82/88/1 144/89/1
f 25/25/10 155/24/10 16/90/10
f 53/91/9 57/92/9 75/62/9
f 100/93/6 56/60/6 97/61/6
f 63/94/5 74/58/5 62/95/5
f 151/96/11 163/30/11 12/97/11
f 164/57/1 59/98/1 165/99/1
f 61/100/3 119/55/3 120/101/3
f 81/54/1 61/100/1 82/88/1
f 128/102/12 166/33/12 11/103/12
f 82/88/1 37/104/1 77/78/1
f 37/104/3 120/101/3 117/76/3
f 165/99/1 35/105/1 160/72/1
f 179/35/12 10/23/12 152/106/12
f 39/107/5 62/95/5 130/70/5
f 93/68/6 65/108/6 100/93/6
f 131/65/9 66/109/9 53/91/9
f 135/38/13 9/110/13 24/111/13
f 144/89/1 77/78/1 141/112/1
f 142/113/1 67/80/1 136/114/1
f 46/41/11 8/115/11 70/116/11
f 132/43/13 24/111/13 32/117/13
f 141/112/1 80/79/1 142/113/1
f 140/118/1 81/54/1 143/87/1
f 33/44/10 134/22/10 25/25/10
f 56/60/10 133/46/10 33/44/10
f 139/119/1 76/52/1 140/118/1
f 138/120/7 46/41/7 30/121/7
f 158/37/8 71/122/8 38/123/8
f 3/8/4 121/124/4 105/9/4
f 147/125/2 67/80/2 122/4/2
f 127/13/1 73/3/1 139/119/1
f 55/126/13 132/43/13 32/117/13
f 138/120/2 102/127/2 72/39/2
f 85/128/4 71/122/4 15/129/4
f 109/130/6 100/93/6 112/131/6
f 94/132/3 66/109/3 42/64/3
f 99/133/3 57/92/3 66/109/3
f 112/131/6 97/61/6 111/134/6
f 103/135/6 96/66/6 110/136/6
f 84/137/3 50/86/3 14/138/3
f 95/139/3 42/64/3 50/86/3
f 110/136/6 93/68/6 109/130/6
f 97/61/6 108/140/6 111/134/6
f 57/92/3 91/141/3 34/42/3
f 34/42/3 90/142/3 26/36/3
f 92/45/6 107/143/6 108/140/6
f 89/27/6 106/12/6 107/143/6
f 167/144/2 18/29/2 153/145/2
f 146/146/4 17/32/4 129/147/4
f 154/34/4 86/26/4 16/90/4
f 26/36/3 85/128/3 15/129/3
f 72/39/2 84/137/2 14/138/2
f 107/143/6 4/11/6 19/148/6
f 108/140/6 19/148/6 28/149/6
f 111/134/6 28/149/6 51/150/6
f 44/151/6 109/130/6 36/152/6
f 1/153/6 110/136/6 44/151/6
f 60/154/6 111/134/6 51/150/6
f 36/152/6 112/131/6 60/154/6
f 145/155/2 122/4/2 102/127/2
f 105/9/4 101/156/4 85/128/4
f 120/101/14 171/157/14 117/76/14
f 120/101/3 98/158/3 99/133/3
f 104/6/3 95/139/3 84/137/3
f 118/77/3 94/132/3 95/139/3
f 98/158/3 116/50/3 91/141/3
f 91/141/3 115/7/3 90/142/3
f 169/18/2 88/159/2 167/144/2
f 148/15/4 87/160/4 146/146/4
f 168/161/4 106/12/4 86/26/4
f 90/142/3 105/9/3 85/128/3
f 102/127/2 104/6/2 84/137/2
f 125/162/15 175/163/15 123/164/15
f 94/132/15 174/165/15 99/133/15
f 117/76/16 172/166/16 94/132/16
f 120/101/17 174/165/17 173/167/17
f 121/124/4 146/146/4 101/156/4
f 88/159/2 147/125/2 145/155/2
f 101/156/4 129/147/4 71/122/4
f 18/29/2 145/155/2 138/120/2
f 48/168/13 131/65/13 40/169/13
f 6/170/1 139/119/1 21/20/1
f 114/17/2 136/114/2 147/125/2
f 18/29/7 30/121/7 163/30/7
f 21/20/1 140/118/1 27/48/1
f 79/71/10 41/67/10 49/85/10
f 162/83/10 49/85/10 13/171/10
f 27/48/1 143/87/1 58/56/1
f 35/105/1 142/113/1 43/73/1
f 8/115/13 78/63/13 48/168/13
f 64/172/13 75/62/13 55/126/13
f 43/73/1 136/114/1 5/81/1
f 59/98/1 141/112/1 35/105/1
f 62/95/10 56/60/10 65/108/10
f 130/70/10 65/108/10 41/67/10
f 58/56/1 144/89/1 59/98/1
f 38/123/8 129/147/8 22/31/8
f 68/1/4 148/15/4 121/124/4
f 87/160/4 170/10/4 168/161/4
f 103/135/2 167/144/2 83/84/2
f 17/32/4 168/161/4 154/34/4
f 83/84/2 153/145/2 13/171/2
f 40/169/13 53/91/13 64/172/13
f 60/154/1 160/72/1 36/152/1
f 51/150/1 165/99/1 60/154/1
f 30/121/11 70/116/11 137/173/11
f 9/110/12 38/123/12 69/174/12
f 44/151/1 150/16/1 1/153/1
f 36/152/1 161/74/1 44/151/1
f 163/30/11 137/173/11 12/97/11
f 69/174/12 22/31/12 128/102/12
f 28/149/1 164/57/1 51/150/1
f 19/148/1 157/49/1 28/149/1
f 166/33/12 152/106/12 11/103/12
f 17/32/8 179/35/8 166/33/8
f 162/83/7 153/145/7 180/28/7
f 7/82/11 180/28/11 151/96/11
f 4/11/1 156/21/1 19/148/1
f 1/153/2 169/18/2 103/135/2
f 113/14/4 149/19/4 170/10/4
f 124/175/1 171/157/1 123/164/1
f 125/162/1 174/165/1 126/176/1
f 124/175/1 174/165/1 172/166/1
f 125/162/1 171/157/1 173/167/1
f 175/163/1 178/177/1 176/178/1
f 126/176/18 177/179/18 125/162/18
f 124/175/14 178/177/14 126/176/14
f 123/164/19 176/178/19 124/175/19
f 68/1/1 3/8/1 20/2/1
f 122/4/2 67/80/2 2/5/2
f 115/7/3 20/2/3 3/8/3
f 170/10/4 149/19/4 4/11/4
f 127/13/4 6/170/4 113/14/4
f 150/16/2 5/81/2 114/17/2
f 149/19/1 6/170/1 21/20/1
f 134/22/5 23/47/5 10/23/5
f 25/25/6 16/90/6 86/26/6
f 180/28/7 153/145/7 18/29/7
f 22/31/8 129/147/8 17/32/8
f 154/34/8 16/90/8 155/24/8
f 26/36/9 15/129/9 158/37/9
f 72/39/7 14/138/7 159/40/7
f 34/42/9 26/36/9 135/38/9
f 33/44/6 25/25/6 89/27/6
f 133/46/5 31/59/5 23/47/5
f 156/21/1 21/20/1 27/48/1
f 116/50/3 29/51/3 20/2/3
f 73/3/1 20/2/1 29/51/1
f 76/52/1 29/51/1 52/53/1
f 119/55/3 52/53/3 29/51/3
f 157/49/1 27/48/1 58/56/1
f 74/58/5 54/180/5 31/59/5
f 56/60/6 33/44/6 92/45/6
f 75/62/9 57/92/9 34/42/9
f 78/63/9 50/86/9 42/64/9
f 96/66/6 49/85/6 41/67/6
f 47/69/5 39/107/5 130/70/5
f 160/72/1 35/105/1 43/73/1
f 45/75/3 37/104/3 117/76/3
f 77/78/1 37/104/1 45/75/1
f 80/79/1 45/75/1 2/5/1
f 2/5/3 45/75/3 118/77/3
f 161/74/1 43/73/1 5/81/1
f 7/82/5 47/69/5 79/71/5
f 83/84/6 13/171/6 49/85/6
f 159/40/9 14/138/9 50/86/9
f 143/87/1 81/54/1 82/88/1
f 25/25/10 134/22/10 155/24/10
f 53/91/9 66/109/9 57/92/9
f 100/93/6 65/108/6 56/60/6
f 63/94/5 54/180/5 74/58/5
f 151/96/11 180/28/11 163/30/11
f 164/57/1 58/56/1 59/98/1
f 61/100/3 52/53/3 119/55/3
f 81/54/1 52/53/1 61/100/1
f 128/102/12 22/31/12 166/33/12
f 82/88/1 61/100/1 37/104/1
f 37/104/3 61/100/3 120/101/3
f 165/99/1 59/98/1 35/105/1
f 179/35/12 155/24/12 10/23/12
f 39/107/5 63/94/5 62/95/5
f 93/68/6 41/67/6 65/108/6
f 131/65/9 42/64/9 66/109/9
f 135/38/13 158/37/13 9/110/13
f 144/89/1 82/88/1 77/78/1
f 142/113/1 80/79/1 67/80/1
f 46/41/11 159/40/11 8/115/11
f 132/43/13 135/38/13 24/111/13
f 141/112/1 77/78/1 80/79/1
f 140/118/1 76/52/1 81/54/1
f 33/44/10 133/46/10 134/22/10
f 56/60/10 74/58/10 133/46/10
f 139/119/1 73/3/1 76/52/1
f 138/120/7 72/39/7 46/41/7
f 158/37/8 15/129/8 71/122/8
f 3/8/4 68/1/4 121/124/4
f 147/125/2 136/114/2 67/80/2
f 127/13/1 68/1/1 73/3/1
f 55/126/13 75/62/13 132/43/13
f 138/120/2 145/155/2 102/127/2
f 85/128/4 101/156/4 71/122/4
f 109/130/6 93/68/6 100/93/6
f 94/132/3 99/133/3 66/109/3
f 99/133/3 98/158/3 57/92/3
f 112/131/6 100/93/6 97/61/6
f 103/135/6 83/84/6 96/66/6
f 84/137/3 95/139/3 50/86/3
f 95/139/3 94/132/3 42/64/3
f 110/136/6 96/66/6 93/68/6
f 97/61/6 92/45/6 108/140/6
f 57/92/3 98/158/3 91/141/3
f 34/42/3 91/141/3 90/142/3
f 92/45/6 89/27/6 107/143/6
f 89/27/6 86/26/6 106/12/6
f 167/144/2 88/159/2 18/29/2
f 146/146/4 87/160/4 17/32/4
f 154/34/4 168/161/4 86/26/4
f 26/36/3 90/142/3 85/128/3
f 72/39/2 102/127/2 84/137/2
f 107/143/6 106/12/6 4/11/6
f 108/140/6 107/143/6 19/148/6
f 111/134/6 108/140/6 28/149/6
f 44/151/6 110/136/6 109/130/6
f 1/153/6 103/135/6 110/136/6
f 60/154/6 112/131/6 111/134/6
f 36/152/6 109/130/6 112/131/6
f 145/155/2 147/125/2 122/4/2
f 105/9/4 121/124/4 101/156/4
f 120/101/14 173/167/14 171/157/14
f 120/101/3 119/55/3 98/158/3
f 104/6/3 118/77/3 95/139/3
f 118/77/3 117/76/3 94/132/3
f 98/158/3 119/55/3 116/50/3
f 91/141/3 116/50/3 115/7/3
f 169/18/2 114/17/2 88/159/2
f 148/15/4 113/14/4 87/160/4
f 168/161/4 170/10/4 106/12/4
f 90/142/3 115/7/3 105/9/3
f 102/127/2 122/4/2 104/6/2
f 125/162/15 177/179/15 175/163/15
f 94/132/15 172/166/15 174/165/15
f 117/76/16 171/157/16 172/166/16
f 120/101/17 99/133/17 174/165/17
f 121/124/4 148/15/4 146/146/4
f 88/159/2 114/17/2 147/125/2
f 101/156/4 146/146/4 129/147/4
f 18/29/2 88/159/2 145/155/2
f 48/168/13 78/63/13 131/65/13
f 6/170/1 127/13/1 139/119/1
f 114/17/2 5/81/2 136/114/2
f 18/29/7 138/120/7 30/121/7
f 21/20/1 139/119/1 140/118/1
f 79/71/10 130/70/10 41/67/10
f 162/83/10 79/71/10 49/85/10
f 27/48/1 140/118/1 143/87/1
f 35/105/1 141/112/1 142/113/1
f 8/115/13 159/40/13 78/63/13
f 64/172/13 53/91/13 75/62/13
f 43/73/1 142/113/1 136/114/1
f 59/98/1 144/89/1 141/112/1
f 62/95/10 74/58/10 56/60/10
f 130/70/10 62/95/10 65/108/10
f 58/56/1 143/87/1 144/89/1
f 38/123/8 71/122/8 129/147/8
f 68/1/4 127/13/4 148/15/4
f 87/160/4 113/14/4 170/10/4
f 103/135/2 169/18/2 167/144/2
f 17/32/4 87/160/4 168/161/4
f 83/84/2 167/144/2 153/145/2
f 40/169/13 131/65/13 53/91/13
f 60/154/1 165/99/1 160/72/1
f 51/150/1 164/57/1 165/99/1
f 30/121/11 46/41/11 70/116/11
f 9/110/12 158/37/12 38/123/12
f 44/151/1 161/74/1 150/16/1
f 36/152/1 160/72/1 161/74/1
f 163/30/11 30/121/11 137/173/11
f 69/174/12 38/123/12 22/31/12
f 28/149/1 157/49/1 164/57/1
f 19/148/1 156/21/1 157/49/1
f 166/33/12 179/35/12 152/106/12
f 17/32/8 154/34/8 179/35/8
f 162/83/7 13/171/7 153/145/7
f 7/82/11 162/83/11 180/28/11
f 4/11/1 149/19/1 156/21/1
f 1/153/2 150/16/2 169/18/2
f 113/14/4 6/170/4 149/19/4
f 124/175/1 172/166/1 171/157/1
f 125/162/1 173/167/1 174/165/1
f 124/175/1 126/176/1 174/165/1
f 125/162/1 123/164/1 171/157/1
f 175/163/1 177/179/1 178/177/1
f 126/176/18 178/177/18 177/179/18
f 124/175/14 176/178/14 178/177/14
f 123/164/19 175/163/19 176/178/19
