# Blender v2.79 (sub 0) OBJ File: 'house.blend'
# www.blender.org
mtllib little_house.mtl
o house_Cube.001
v 1.226969 -0.002375 -1.000000
v 1.226969 -0.002375 1.000000
v -1.226969 -0.002375 1.000000
v -1.226968 -0.002375 -1.000000
v 1.226969 -0.002375 0.000000
v -1.226968 -0.002375 -0.000000
v 1.226969 1.242032 -1.000000
v 1.226968 1.242032 1.000000
v -1.226969 1.242032 1.000000
v -1.226968 1.242032 -1.000000
v -1.226969 1.242032 -0.000000
v 1.226969 1.242032 0.000000
v -0.776558 -0.002375 -1.000000
v -0.939473 -0.002375 1.000000
v -0.776558 1.242032 -1.000000
v -0.939473 1.242032 1.000000
v -0.328960 -0.002375 -1.000000
v -0.484331 -0.002375 1.000000
v -0.328960 1.242032 -1.000000
v -0.484331 1.242032 1.000000
v -1.226968 0.433392 -0.000000
v 1.226969 0.433392 0.000000
v 1.226969 0.433392 -1.000000
v 1.226968 0.433392 1.000000
v -1.226969 0.433392 1.000000
v -1.226968 0.433392 -1.000000
v -0.939473 0.433392 1.000000
v -0.776558 0.433392 -1.000000
v -0.328960 0.433392 -1.000000
v -0.484331 0.433392 1.000000
v 1.226969 0.811065 -1.000000
v 1.226968 0.811065 1.000000
v -1.226969 0.811065 1.000000
v -1.226968 0.811065 -1.000000
v -0.776558 0.811065 -1.000000
v -0.328960 0.811065 -1.000000
v -0.108202 0.433392 -0.861166
v -0.939473 0.811065 1.000000
v -0.484331 0.811065 1.000000
v 0.618561 -0.002375 -1.000000
v 0.557807 -0.002375 1.000000
v 0.618561 1.242032 -1.000000
v 0.557806 1.242032 1.000000
v 0.557806 0.433392 1.000000
v 0.618561 0.433392 -1.000000
v 0.618561 0.811065 -1.000000
v 0.557806 0.811065 1.000000
v 1.000527 -0.002375 -1.000000
v 0.977915 -0.002375 1.000000
v 1.000527 1.242032 -1.000000
v 0.977915 1.242032 1.000000
v 0.977915 0.433392 1.000000
v 1.000527 0.433392 -1.000000
v 1.000527 0.811065 -1.000000
v 0.977915 0.811065 1.000000
v -0.108202 -0.002375 -1.000000
v -0.241529 -0.002375 1.000000
v -0.108202 1.242032 -1.000000
v -0.241529 1.242032 1.000000
v -0.241529 0.433392 1.000000
v -0.108202 0.433392 -1.000000
v -1.098061 0.811065 -0.000000
v -0.241529 0.811065 1.000000
v 0.364692 -0.002375 -1.000000
v 0.278587 -0.002375 1.000000
v 0.364692 1.242032 -1.000000
v 0.278586 1.242032 1.000000
v 0.278586 0.433392 1.000000
v 0.364692 0.433392 -1.000000
v 0.364692 0.811065 -1.000000
v 0.278586 0.811065 1.000000
v -0.939473 0.811065 0.798163
v -0.939473 0.433392 0.798163
v -0.484331 0.811065 0.798163
v -0.484331 0.433392 0.798163
v 0.977915 0.433392 0.798163
v 0.557806 0.433392 0.798163
v 0.977915 0.811065 0.798163
v 0.557806 0.811065 0.798163
v 1.226969 -0.002375 0.798163
v 0.278587 0.433392 0.798163
v -0.241529 0.433392 0.798163
v 0.278586 0.811065 0.798163
v -0.241529 0.811065 0.798163
v -1.226969 -0.002375 0.798163
v -1.226969 1.242032 0.798163
v 1.226968 1.242032 0.798164
v 1.226968 0.433392 0.798163
v -1.226969 0.433392 0.798163
v 1.226968 0.811065 0.798163
v -1.226969 0.811065 0.798163
v -0.241529 -0.002375 0.798163
v 0.278587 -0.002375 0.798163
v 1.226969 1.022505 -1.000000
v 1.226968 1.022505 1.000000
v -1.226969 1.022505 1.000000
v -1.226968 1.022505 -1.000000
v -0.776558 1.022505 -1.000000
v -0.328960 1.022505 -1.000000
v -1.226969 1.022505 -0.000000
v 1.226969 1.022505 0.000000
v -0.939473 1.022505 1.000000
v -0.484331 1.022505 1.000000
v 0.618561 1.022505 -1.000000
v 0.557806 1.022505 1.000000
v 0.977915 1.022505 1.000000
v 1.000527 1.022505 -1.000000
v -0.108202 1.022505 -1.000000
v -0.241529 1.022505 1.000000
v 0.278586 1.022505 1.000000
v 0.364692 1.022505 -1.000000
v 1.226968 1.022505 0.798163
v -1.226969 1.022505 0.798163
v -1.226968 -0.002375 0.279357
v -1.226969 1.242032 0.279357
v -1.226969 0.433392 0.279357
v -1.226969 0.811065 0.279357
v 1.226969 -0.002375 0.279357
v 1.226968 1.242032 0.279357
v 1.226969 0.433392 0.279357
v 1.226968 0.811065 0.279357
v 1.226968 1.022505 0.279357
v -1.226969 1.022505 0.279357
v -1.226968 -0.002375 -0.300000
v 1.226969 -0.002375 -0.300000
v 1.226969 1.242032 -0.300000
v -1.226969 1.242032 -0.300000
v -1.226968 0.433392 -0.300000
v 1.226969 0.433392 -0.300000
v -1.226968 0.811065 -0.300000
v 1.226969 0.811065 -0.300000
v -1.226968 1.022505 -0.300000
v 1.226969 1.022505 -0.300000
v 1.069750 0.811065 0.000000
v 1.069750 0.433392 0.000000
v 1.069750 0.433392 -0.300000
v 1.069750 1.022505 0.000000
v 1.069750 0.811065 -0.300000
v 1.069750 1.022505 -0.300000
v 1.069750 0.433392 0.279357
v 1.069750 0.811065 0.279357
v 1.069750 1.022505 0.279357
v -0.328960 0.433392 -0.861166
v -0.328960 0.811065 -0.861166
v -0.108202 0.811065 -0.861166
v 0.364692 0.433392 -0.861166
v 0.364692 0.811065 -0.861166
v -0.328960 1.022505 -0.861166
v -0.108202 1.022505 -0.861166
v 0.364692 1.022505 -0.861166
v -1.098061 0.433392 -0.000000
v -1.098061 0.433392 0.279357
v -1.098061 1.022505 -0.000000
v -1.098061 0.811065 0.279357
v -1.098061 1.022505 0.279357
v -1.098061 0.433392 -0.300000
v -1.098061 0.811065 -0.300000
v -1.098061 1.022505 -0.300000
vt 0.274804 0.771602
vt 0.102163 0.764160
vt 0.204765 0.692739
vt 0.696997 0.634809
vt 0.736826 0.609109
vt 0.724771 0.650217
vt 0.308200 0.448656
vt 0.271563 0.481548
vt 0.274788 0.437066
vt 0.258039 0.525287
vt 0.340923 0.609030
vt 0.310279 0.627329
vt 0.420091 0.341476
vt 0.358191 0.339773
vt 0.403788 0.309155
vt 0.716679 0.491619
vt 0.737236 0.447981
vt 0.749867 0.481864
vt 0.490005 0.322391
vt 0.486259 0.282794
vt 0.363606 0.829519
vt 0.199845 0.863753
vt 0.369626 0.957672
vt 0.409496 0.857547
vt 0.530198 0.322580
vt 0.534666 0.282247
vt 0.512401 0.140821
vt 0.416698 0.013072
vt 0.504283 0.000099
vt 0.442529 0.736801
vt 0.418754 0.751093
vt 0.408998 0.733115
vt 0.323485 0.713378
vt 0.386947 0.760605
vt 0.450117 0.152328
vt 0.262065 0.065101
vt 0.872632 0.461093
vt 0.987660 0.375420
vt 0.999901 0.441841
vt 0.336115 0.180256
vt 0.178935 0.124984
vt 0.002432 0.556125
vt 0.160248 0.390872
vt 0.000099 0.443616
vt 0.023926 0.347354
vt 0.813881 0.717262
vt 0.966932 0.702452
vt 0.918910 0.785317
vt 0.277030 0.647190
vt 0.349218 0.686925
vt 0.390865 0.814606
vt 0.537967 0.235756
vt 0.478573 0.239842
vt 0.430931 0.188436
vt 0.785547 0.473312
vt 0.861825 0.410929
vt 0.333131 0.304957
vt 0.272615 0.232244
vt 0.224881 0.537960
vt 0.144644 0.537454
vt 0.132988 0.462727
vt 0.165326 0.512820
vt 0.745472 0.643351
vt 0.701471 0.321392
vt 0.759885 0.352586
vt 0.754605 0.386170
vt 0.619634 0.766573
vt 0.549433 0.752423
vt 0.605950 0.734050
vt 0.647085 0.838465
vt 0.555562 0.786306
vt 0.842962 0.351604
vt 0.873549 0.163504
vt 0.959842 0.291878
vt 0.690150 0.426795
vt 0.674202 0.348994
vt 0.720951 0.408935
vt 0.687338 0.947700
vt 0.561573 0.860758
vt 0.749429 0.920632
vt 0.693883 0.815786
vt 0.698599 0.465518
vt 0.656357 0.747507
vt 0.636651 0.715059
vt 0.774212 0.434255
vt 0.483757 0.836914
vt 0.501390 0.858659
vt 0.508848 0.753962
vt 0.440091 0.754258
vt 0.612254 0.349564
vt 0.632272 0.315135
vt 0.507373 0.976283
vt 0.569632 0.135081
vt 0.577835 0.000099
vt 0.574572 0.972709
vt 0.648800 0.375645
vt 0.772368 0.256788
vt 0.808567 0.100018
vt 0.514174 0.790993
vt 0.722546 0.202610
vt 0.436362 0.224456
vt 0.395155 0.205282
vt 0.768808 0.310098
vt 0.783406 0.336366
vt 0.638032 0.222962
vt 0.685657 0.170168
vt 0.742640 0.323913
vt 0.654013 0.276248
vt 0.384695 0.272487
vt 0.568519 0.211052
vt 0.400841 0.233554
vt 0.233907 0.271810
vt 0.794308 0.565111
vt 0.861438 0.593277
vt 0.126530 0.177066
vt 0.991924 0.611970
vt 0.722175 0.564591
vt 0.755305 0.569968
vt 0.383649 0.374929
vt 0.330095 0.361403
vt 0.301715 0.332884
vt 0.510241 0.722674
vt 0.544586 0.721339
vt 0.449152 0.710558
vt 0.593378 0.706767
vt 0.616116 0.686041
vt 0.420705 0.701296
vt 0.369011 0.667203
vt 0.221072 0.516992
vt 0.760842 0.659460
vt 0.802371 0.677761
vt 0.242748 0.415548
vt 0.856041 0.655907
vt 0.834030 0.608731
vt 0.712225 0.599635
vt 0.826779 0.645084
vt 0.351990 0.386971
vt 0.747386 0.675072
vt 0.233957 0.432902
vt 0.245200 0.512362
vt 0.298511 0.486183
vt 0.779220 0.626681
vt 0.755147 0.616349
vt 0.790923 0.592889
vt 0.768114 0.589253
vt 0.418616 0.831598
vt 0.405932 0.770437
vt 0.433485 0.780020
vt 0.492035 0.791558
vt 0.489712 0.767826
vt 0.180434 0.424811
vt 0.222638 0.474304
vt 0.162477 0.465707
vt 0.251604 0.478634
vt 0.257683 0.447093
vt 0.293417 0.525389
vt 0.315351 0.933016
vt 0.751636 0.061932
vn 0.0000 0.0000 -1.0000
vn 1.0000 0.0000 0.0000
vn -1.0000 -0.0000 -0.0000
vn 0.0000 0.0000 1.0000
vn 0.0000 -1.0000 0.0000
vn 0.0000 1.0000 0.0000
usemtl Material
s off
f 28/1/1 4/2/1 26/3/1
f 126/4/2 101/5/2 133/6/2
f 115/7/3 100/8/3 123/9/3
f 132/10/3 10/11/3 97/12/3
f 16/13/4 96/14/4 102/15/4
f 87/16/2 95/17/2 112/18/2
f 20/19/4 102/15/4 103/20/4
f 29/21/1 13/22/1 28/1/1
f 56/23/1 29/21/1 61/24/1
f 59/25/4 103/20/4 109/26/4
f 60/27/4 18/28/4 57/29/4
f 108/30/5 148/31/5 99/32/5
f 29/21/1 35/33/1 36/34/1
f 30/35/4 14/36/4 18/28/4
f 88/37/2 2/38/2 80/39/2
f 27/40/4 3/41/4 14/36/4
f 124/42/3 26/3/3 4/2/3
f 116/43/3 6/44/3 114/45/3
f 129/46/2 5/47/2 125/48/2
f 35/33/1 26/3/1 34/49/1
f 35/33/1 97/12/1 98/50/1
f 36/34/1 98/50/1 99/32/1
f 36/34/2 143/51/2 29/21/2
f 63/52/4 30/35/4 60/27/4
f 39/53/3 75/54/3 30/35/3
f 90/55/2 24/56/2 88/37/2
f 27/40/4 33/57/4 25/58/4
f 130/59/3 26/3/3 128/60/3
f 21/61/6 156/62/6 128/60/6
f 101/5/5 139/63/5 133/6/5
f 47/64/5 78/65/5 55/66/5
f 54/67/1 104/68/1 107/69/1
f 53/70/1 46/71/1 54/67/1
f 52/72/4 41/73/4 49/74/4
f 51/75/4 105/76/4 106/77/4
f 48/78/1 45/79/1 53/70/1
f 1/80/1 53/70/1 23/81/1
f 8/82/4 106/77/4 95/17/4
f 24/56/4 49/74/4 2/38/4
f 23/81/1 54/67/1 31/83/1
f 31/83/1 107/69/1 94/84/1
f 32/85/4 52/72/4 24/56/4
f 61/24/6 146/86/6 69/87/6
f 111/88/5 149/89/5 108/30/5
f 67/90/4 109/26/4 110/91/4
f 64/92/1 61/24/1 69/87/1
f 82/93/2 57/29/2 92/94/2
f 40/95/1 69/87/1 45/79/1
f 43/96/4 110/91/4 105/76/4
f 44/97/4 65/98/4 41/73/4
f 45/79/1 70/99/1 46/71/1
f 46/71/1 111/88/1 104/68/1
f 47/64/4 68/100/4 44/97/4
f 74/101/4 73/102/4 75/54/4
f 78/65/4 77/103/4 76/104/4
f 83/105/4 82/93/4 81/106/4
f 44/97/2 79/107/2 47/64/2
f 71/108/3 81/106/3 68/100/3
f 38/109/5 74/101/5 39/53/5
f 71/108/5 84/110/5 83/105/5
f 27/40/6 75/54/6 73/102/6
f 52/72/6 77/103/6 44/97/6
f 27/40/2 72/111/2 38/109/2
f 52/72/3 78/65/3 76/104/3
f 60/27/2 84/110/2 63/52/2
f 33/57/3 89/112/3 25/58/3
f 121/113/2 88/37/2 120/114/2
f 25/58/3 85/115/3 3/41/3
f 120/114/2 80/39/2 118/116/2
f 119/117/2 112/18/2 122/118/2
f 9/119/3 113/120/3 96/14/3
f 92/94/4 81/106/4 82/93/4
f 81/106/3 65/98/3 68/100/3
f 96/14/3 91/121/3 33/57/3
f 122/118/2 90/55/2 121/113/2
f 104/68/1 66/122/1 42/123/1
f 105/76/4 71/108/4 47/64/4
f 110/91/4 63/52/4 71/108/4
f 111/88/1 58/124/1 66/122/1
f 94/84/1 50/125/1 7/126/1
f 95/17/4 55/66/4 32/85/4
f 106/77/4 47/64/4 55/66/4
f 107/69/1 42/123/1 50/125/1
f 108/30/1 19/127/1 58/124/1
f 99/32/1 15/128/1 19/127/1
f 98/50/1 10/11/1 15/128/1
f 109/26/4 39/53/4 63/52/4
f 103/20/4 38/109/4 39/53/4
f 112/18/2 32/85/2 90/55/2
f 102/15/4 33/57/4 38/109/4
f 130/59/3 97/12/3 34/49/3
f 128/60/4 157/129/4 130/59/4
f 129/46/4 138/130/4 136/131/4
f 91/121/3 123/9/3 117/132/3
f 22/133/6 140/134/6 120/114/6
f 12/135/2 122/118/2 101/5/2
f 22/133/2 118/116/2 5/47/2
f 129/46/6 135/136/6 22/133/6
f 91/121/3 116/43/3 89/112/3
f 89/112/3 114/45/3 85/115/3
f 86/137/3 123/9/3 113/120/3
f 94/84/2 131/138/2 31/83/2
f 123/9/1 154/139/1 117/132/1
f 31/83/2 129/46/2 23/81/2
f 130/59/4 158/140/4 132/10/4
f 23/81/2 125/48/2 1/80/2
f 21/61/3 124/42/3 6/44/3
f 11/141/3 132/10/3 100/8/3
f 7/126/2 133/6/2 94/84/2
f 138/130/2 135/136/2 136/131/2
f 139/63/2 134/142/2 138/130/2
f 137/143/2 141/144/2 134/142/2
f 134/142/2 140/134/2 135/136/2
f 122/118/5 137/143/5 101/5/5
f 133/6/4 138/130/4 131/138/4
f 121/113/1 140/134/1 141/144/1
f 121/113/1 142/145/1 122/118/1
f 37/146/1 144/147/1 145/148/1
f 145/148/1 148/31/1 149/89/1
f 147/149/1 149/89/1 150/150/1
f 146/86/1 145/148/1 147/149/1
f 111/88/3 147/149/3 150/150/3
f 70/99/3 146/86/3 147/149/3
f 29/21/6 37/146/6 61/24/6
f 99/32/2 144/147/2 36/34/2
f 152/151/3 62/152/3 151/153/3
f 154/139/3 153/154/3 62/152/3
f 62/152/3 158/140/3 157/129/3
f 151/153/3 157/129/3 156/62/3
f 116/43/6 151/153/6 21/61/6
f 100/8/5 158/140/5 153/154/5
f 116/43/1 154/139/1 152/151/1
f 100/8/5 155/155/5 123/9/5
f 28/1/1 13/22/1 4/2/1
f 126/4/2 12/135/2 101/5/2
f 115/7/3 11/141/3 100/8/3
f 132/10/3 127/156/3 10/11/3
f 16/13/4 9/119/4 96/14/4
f 87/16/2 8/82/2 95/17/2
f 20/19/4 16/13/4 102/15/4
f 29/21/1 17/157/1 13/22/1
f 56/23/1 17/157/1 29/21/1
f 59/25/4 20/19/4 103/20/4
f 60/27/4 30/35/4 18/28/4
f 108/30/5 149/89/5 148/31/5
f 29/21/1 28/1/1 35/33/1
f 30/35/4 27/40/4 14/36/4
f 88/37/2 24/56/2 2/38/2
f 27/40/4 25/58/4 3/41/4
f 124/42/3 128/60/3 26/3/3
f 116/43/3 21/61/3 6/44/3
f 129/46/2 22/133/2 5/47/2
f 35/33/1 28/1/1 26/3/1
f 35/33/1 34/49/1 97/12/1
f 36/34/1 35/33/1 98/50/1
f 36/34/2 144/147/2 143/51/2
f 63/52/4 39/53/4 30/35/4
f 39/53/3 74/101/3 75/54/3
f 90/55/2 32/85/2 24/56/2
f 27/40/4 38/109/4 33/57/4
f 130/59/3 34/49/3 26/3/3
f 21/61/6 151/153/6 156/62/6
f 101/5/5 137/143/5 139/63/5
f 47/64/5 79/107/5 78/65/5
f 54/67/1 46/71/1 104/68/1
f 53/70/1 45/79/1 46/71/1
f 52/72/4 44/97/4 41/73/4
f 51/75/4 43/96/4 105/76/4
f 48/78/1 40/95/1 45/79/1
f 1/80/1 48/78/1 53/70/1
f 8/82/4 51/75/4 106/77/4
f 24/56/4 52/72/4 49/74/4
f 23/81/1 53/70/1 54/67/1
f 31/83/1 54/67/1 107/69/1
f 32/85/4 55/66/4 52/72/4
f 61/24/6 37/146/6 146/86/6
f 111/88/5 150/150/5 149/89/5
f 67/90/4 59/25/4 109/26/4
f 64/92/1 56/23/1 61/24/1
f 82/93/2 60/27/2 57/29/2
f 40/95/1 64/92/1 69/87/1
f 43/96/4 67/90/4 110/91/4
f 44/97/4 68/100/4 65/98/4
f 45/79/1 69/87/1 70/99/1
f 46/71/1 70/99/1 111/88/1
f 47/64/4 71/108/4 68/100/4
f 74/101/4 72/111/4 73/102/4
f 78/65/4 79/107/4 77/103/4
f 83/105/4 84/110/4 82/93/4
f 44/97/2 77/103/2 79/107/2
f 71/108/3 83/105/3 81/106/3
f 38/109/5 72/111/5 74/101/5
f 71/108/5 63/52/5 84/110/5
f 27/40/6 30/35/6 75/54/6
f 52/72/6 76/104/6 77/103/6
f 27/40/2 73/102/2 72/111/2
f 52/72/3 55/66/3 78/65/3
f 60/27/2 82/93/2 84/110/2
f 33/57/3 91/121/3 89/112/3
f 121/113/2 90/55/2 88/37/2
f 25/58/3 89/112/3 85/115/3
f 120/114/2 88/37/2 80/39/2
f 119/117/2 87/16/2 112/18/2
f 9/119/3 86/137/3 113/120/3
f 92/94/4 93/158/4 81/106/4
f 81/106/3 93/158/3 65/98/3
f 96/14/3 113/120/3 91/121/3
f 122/118/2 112/18/2 90/55/2
f 104/68/1 111/88/1 66/122/1
f 105/76/4 110/91/4 71/108/4
f 110/91/4 109/26/4 63/52/4
f 111/88/1 108/30/1 58/124/1
f 94/84/1 107/69/1 50/125/1
f 95/17/4 106/77/4 55/66/4
f 106/77/4 105/76/4 47/64/4
f 107/69/1 104/68/1 42/123/1
f 108/30/1 99/32/1 19/127/1
f 99/32/1 98/50/1 15/128/1
f 98/50/1 97/12/1 10/11/1
f 109/26/4 103/20/4 39/53/4
f 103/20/4 102/15/4 38/109/4
f 112/18/2 95/17/2 32/85/2
f 102/15/4 96/14/4 33/57/4
f 130/59/3 132/10/3 97/12/3
f 128/60/4 156/62/4 157/129/4
f 129/46/4 131/138/4 138/130/4
f 91/121/3 113/120/3 123/9/3
f 22/133/6 135/136/6 140/134/6
f 12/135/2 119/117/2 122/118/2
f 22/133/2 120/114/2 118/116/2
f 129/46/6 136/131/6 135/136/6
f 91/121/3 117/132/3 116/43/3
f 89/112/3 116/43/3 114/45/3
f 86/137/3 115/7/3 123/9/3
f 94/84/2 133/6/2 131/138/2
f 123/9/1 155/155/1 154/139/1
f 31/83/2 131/138/2 129/46/2
f 130/59/4 157/129/4 158/140/4
f 23/81/2 129/46/2 125/48/2
f 21/61/3 128/60/3 124/42/3
f 11/141/3 127/156/3 132/10/3
f 7/126/2 126/4/2 133/6/2
f 138/130/2 134/142/2 135/136/2
f 139/63/2 137/143/2 134/142/2
f 137/143/2 142/145/2 141/144/2
f 134/142/2 141/144/2 140/134/2
f 122/118/5 142/145/5 137/143/5
f 133/6/4 139/63/4 138/130/4
f 121/113/1 120/114/1 140/134/1
f 121/113/1 141/144/1 142/145/1
f 37/146/1 143/51/1 144/147/1
f 145/148/1 144/147/1 148/31/1
f 147/149/1 145/148/1 149/89/1
f 146/86/1 37/146/1 145/148/1
f 111/88/3 70/99/3 147/149/3
f 70/99/3 69/87/3 146/86/3
f 29/21/6 143/51/6 37/146/6
f 99/32/2 148/31/2 144/147/2
f 152/151/3 154/139/3 62/152/3
f 154/139/3 155/155/3 153/154/3
f 62/152/3 153/154/3 158/140/3
f 151/153/3 62/152/3 157/129/3
f 116/43/6 152/151/6 151/153/6
f 100/8/5 132/10/5 158/140/5
f 116/43/1 117/132/1 154/139/1
f 100/8/5 153/154/5 155/155/5
