# Blender v2.83.1 OBJ File: ''
# www.blender.org
v 0.000000 0.485235 -0.165574
v 0.032302 0.485235 -0.162393
v 0.063363 0.485235 -0.152972
v 0.091988 0.485235 -0.137671
v 0.117079 0.485235 -0.117080
v 0.137671 0.485235 -0.091989
v 0.152971 0.485235 -0.063363
v 0.162393 0.485235 -0.032303
v 0.165574 0.485235 -0.000000
v 0.162393 0.485235 0.032302
v 0.152971 0.485235 0.063363
v 0.137671 0.485235 0.091988
v 0.117079 0.485235 0.117079
v 0.091988 0.485235 0.137670
v 0.063363 0.485235 0.152971
v 0.032302 0.485235 0.162393
v -0.000000 0.485235 0.165574
v -0.032302 0.485235 0.162393
v -0.063363 0.485235 0.152971
v -0.091988 0.485235 0.137670
v -0.117079 0.485235 0.117079
v -0.137671 0.485235 0.091988
v -0.152971 0.485235 0.063362
v -0.162393 0.485235 0.032302
v -0.165574 0.485235 -0.000000
v -0.162393 0.485235 -0.032303
v -0.152971 0.485235 -0.063363
v -0.137670 0.485235 -0.091989
v -0.117079 0.485235 -0.117080
v -0.091988 0.485235 -0.137671
v -0.063363 0.485235 -0.152972
v -0.032302 0.485235 -0.162393
v 0.000000 0.036096 -0.165574
v 0.032302 0.036096 -0.162393
v 0.063363 0.036096 -0.152972
v 0.091988 0.036096 -0.137671
v 0.117079 0.036096 -0.117080
v 0.137671 0.036096 -0.091989
v 0.152971 0.036096 -0.063363
v 0.162393 0.036096 -0.032303
v 0.165574 0.036096 -0.000000
v 0.162393 0.036096 0.032302
v 0.152971 0.036096 0.063363
v 0.137671 0.036096 0.091988
v 0.117079 0.036096 0.117079
v 0.091988 0.036096 0.137670
v 0.063363 0.036096 0.152971
v 0.032302 0.036096 0.162393
v -0.000000 0.036096 0.165574
v -0.032302 0.036096 0.162393
v -0.063363 0.036096 0.152971
v -0.091988 0.036096 0.137670
v -0.117079 0.036096 0.117079
v -0.137671 0.036096 0.091988
v -0.152971 0.036096 0.063362
v -0.162393 0.036096 0.032302
v -0.165574 0.036096 -0.000000
v -0.162393 0.036096 -0.032303
v -0.152971 0.036096 -0.063363
v -0.137670 0.036096 -0.091989
v -0.117079 0.036096 -0.117080
v -0.091988 0.036096 -0.137671
v -0.063363 0.036096 -0.152972
v -0.032302 0.036096 -0.162393
v 0.000000 0.036236 0.000000
v 0.000000 0.485235 -0.000000
vt 0.000000 0.000000
vt 0.000000 0.000000
vt 0.000000 0.000000
vt 0.000000 0.000000
vt 0.000000 0.000000
vt 0.000000 0.000000
vt 0.000000 0.000000
vt 0.000000 0.000000
vt 0.000000 0.000000
vt 0.000000 0.000000
vt 0.000000 0.000000
vt 0.000000 0.000000
vt 0.000000 0.000000
vt 0.000000 0.000000
vt 0.000000 0.000000
vt 0.000000 0.000000
vt 0.000000 0.000000
vt 0.000000 0.000000
vt 0.000000 0.000000
vt 0.000000 0.000000
vt 0.000000 0.000000
vt 0.000000 0.000000
vt 0.000000 0.000000
vt 0.000000 0.000000
vt 0.000000 0.000000
vt 0.000000 0.000000
vt 0.000000 0.000000
vt 0.000000 0.000000
vt 0.000000 0.000000
vt 0.000000 0.000000
vt 0.000000 0.000000
vt 0.000000 0.000000
vt 0.000000 0.000000
vt 0.000000 0.000000
vt 0.000000 0.000000
vt 0.000000 0.000000
vt 0.000000 0.000000
vt 0.000000 0.000000
vt 0.000000 0.000000
vt 0.000000 0.000000
vt 0.000000 0.000000
vt 0.000000 0.000000
vt 0.000000 0.000000
vt 0.000000 0.000000
vt 0.000000 0.000000
vt 0.000000 0.000000
vt 0.000000 0.000000
vt 0.000000 0.000000
vt 0.000000 0.000000
vt 0.000000 0.000000
vt 0.000000 0.000000
vt 0.000000 0.000000
vt 0.000000 0.000000
vt 0.000000 0.000000
vt 0.000000 0.000000
vt 0.000000 0.000000
vt 0.000000 0.000000
vt 0.000000 0.000000
vt 0.000000 0.000000
vt 0.000000 0.000000
vt 0.000000 0.000000
vt 0.000000 0.000000
vt 0.000000 0.000000
vt 0.000000 0.000000
vt 0.000000 0.000000
vt 0.000000 0.000000
vn -0.9569 0.0000 -0.2903
vn 0.6344 0.0000 0.7730
vn -0.8819 0.0000 -0.4714
vn 0.4714 0.0000 0.8819
vn 0.0980 0.0000 -0.9952
vn -0.7730 0.0000 -0.6344
vn 0.2903 0.0000 0.9569
vn 0.2903 0.0000 -0.9569
vn -0.6344 0.0000 -0.7730
vn 0.0980 0.0000 0.9952
vn 0.4714 0.0000 -0.8819
vn -0.4714 0.0000 -0.8819
vn -0.0980 0.0000 0.9952
vn 0.6344 0.0000 -0.7730
vn -0.2903 0.0000 -0.9569
vn -0.2903 0.0000 0.9569
vn 0.7730 0.0000 -0.6344
vn -0.0980 0.0000 -0.9952
vn -0.4714 0.0000 0.8819
vn 0.8819 0.0000 -0.4714
vn -0.6344 0.0000 0.7730
vn 0.9569 0.0000 -0.2903
vn -0.7730 0.0000 0.6344
vn 0.9952 0.0000 -0.0980
vn -0.8819 0.0000 0.4714
vn 0.9952 0.0000 0.0980
vn -0.9569 0.0000 0.2903
vn 0.9569 0.0000 0.2903
vn -0.9952 0.0000 0.0980
vn 0.8819 0.0000 0.4714
vn -0.9952 0.0000 -0.0980
vn 0.7730 0.0000 0.6344
vn 0.0007 -1.0000 -0.0005
vn -0.0008 -1.0000 0.0001
vn 0.0008 -1.0000 -0.0004
vn -0.0008 -1.0000 -0.0001
vn 0.0008 -1.0000 -0.0002
vn -0.0008 -1.0000 -0.0002
vn 0.0008 -1.0000 -0.0001
vn -0.0008 -1.0000 -0.0004
vn 0.0008 -1.0000 0.0001
vn -0.0007 -1.0000 -0.0005
vn 0.0008 -1.0000 0.0002
vn -0.0005 -1.0000 -0.0007
vn 0.0008 -1.0000 0.0004
vn -0.0004 -1.0000 -0.0008
vn -0.0001 -1.0000 0.0008
vn 0.0007 -1.0000 0.0005
vn -0.0002 -1.0000 -0.0008
vn -0.0002 -1.0000 0.0008
vn 0.0005 -1.0000 0.0007
vn -0.0001 -1.0000 -0.0008
vn -0.0004 -1.0000 0.0008
vn 0.0004 -1.0000 0.0008
vn 0.0001 -1.0000 -0.0008
vn -0.0005 -1.0000 0.0007
vn 0.0002 -1.0000 0.0008
vn 0.0002 -1.0000 -0.0008
vn -0.0007 -1.0000 0.0005
vn 0.0001 -1.0000 0.0008
vn 0.0004 -1.0000 -0.0008
vn -0.0008 -1.0000 0.0004
vn 0.0005 -1.0000 -0.0007
vn -0.0008 -1.0000 0.0002
vn 0.0000 1.0000 0.0000
s off
f 59/1/1 26/2/1 27/3/1
f 46/4/2 13/5/2 14/6/2
f 60/7/3 27/3/3 28/8/3
f 47/9/4 14/6/4 15/10/4
f 34/11/5 1/12/5 2/13/5
f 61/14/6 28/8/6 29/15/6
f 48/16/7 15/10/7 16/17/7
f 35/18/8 2/13/8 3/19/8
f 62/20/9 29/15/9 30/21/9
f 49/22/10 16/17/10 17/23/10
f 36/24/11 3/19/11 4/25/11
f 63/26/12 30/21/12 31/27/12
f 50/28/13 17/23/13 18/29/13
f 37/30/14 4/25/14 5/31/14
f 64/32/15 31/27/15 32/33/15
f 51/34/16 18/29/16 19/35/16
f 38/36/17 5/31/17 6/37/17
f 33/38/18 32/33/18 1/12/18
f 52/39/19 19/35/19 20/40/19
f 39/41/20 6/37/20 7/42/20
f 53/43/21 20/40/21 21/44/21
f 40/45/22 7/42/22 8/46/22
f 54/47/23 21/44/23 22/48/23
f 41/49/24 8/46/24 9/50/24
f 55/51/25 22/48/25 23/52/25
f 42/53/26 9/50/26 10/54/26
f 56/55/27 23/52/27 24/56/27
f 43/57/28 10/54/28 11/58/28
f 57/59/29 24/56/29 25/60/29
f 44/61/30 11/58/30 12/62/30
f 58/63/31 25/60/31 26/2/31
f 45/64/32 12/62/32 13/5/32
f 54/47/33 65/65/33 53/43/33
f 41/49/34 65/65/34 40/45/34
f 55/51/35 65/65/35 54/47/35
f 42/53/36 65/65/36 41/49/36
f 56/55/37 65/65/37 55/51/37
f 43/57/38 65/65/38 42/53/38
f 57/59/39 65/65/39 56/55/39
f 44/61/40 65/65/40 43/57/40
f 58/63/41 65/65/41 57/59/41
f 45/64/42 65/65/42 44/61/42
f 59/1/43 65/65/43 58/63/43
f 46/4/44 65/65/44 45/64/44
f 60/7/45 65/65/45 59/1/45
f 47/9/46 65/65/46 46/4/46
f 34/11/47 65/65/47 33/38/47
f 61/14/48 65/65/48 60/7/48
f 48/16/49 65/65/49 47/9/49
f 35/18/50 65/65/50 34/11/50
f 62/20/51 65/65/51 61/14/51
f 49/22/52 65/65/52 48/16/52
f 36/24/53 65/65/53 35/18/53
f 63/26/54 65/65/54 62/20/54
f 50/28/55 65/65/55 49/22/55
f 37/30/56 65/65/56 36/24/56
f 64/32/57 65/65/57 63/26/57
f 51/34/58 65/65/58 50/28/58
f 38/36/59 65/65/59 37/30/59
f 33/38/60 65/65/60 64/32/60
f 52/39/61 65/65/61 51/34/61
f 39/41/62 65/65/62 38/36/62
f 53/43/63 65/65/63 52/39/63
f 40/45/64 65/65/64 39/41/64
f 26/2/65 66/66/65 27/3/65
f 13/5/65 66/66/65 14/6/65
f 27/3/65 66/66/65 28/8/65
f 14/6/65 66/66/65 15/10/65
f 1/12/65 66/66/65 2/13/65
f 28/8/65 66/66/65 29/15/65
f 15/10/65 66/66/65 16/17/65
f 2/13/65 66/66/65 3/19/65
f 29/15/65 66/66/65 30/21/65
f 16/17/65 66/66/65 17/23/65
f 3/19/65 66/66/65 4/25/65
f 30/21/65 66/66/65 31/27/65
f 17/23/65 66/66/65 18/29/65
f 4/25/65 66/66/65 5/31/65
f 31/27/65 66/66/65 32/33/65
f 18/29/65 66/66/65 19/35/65
f 5/31/65 66/66/65 6/37/65
f 32/33/65 66/66/65 1/12/65
f 19/35/65 66/66/65 20/40/65
f 6/37/65 66/66/65 7/42/65
f 20/40/65 66/66/65 21/44/65
f 7/42/65 66/66/65 8/46/65
f 21/44/65 66/66/65 22/48/65
f 8/46/65 66/66/65 9/50/65
f 22/48/65 66/66/65 23/52/65
f 9/50/65 66/66/65 10/54/65
f 23/52/65 66/66/65 24/56/65
f 10/54/65 66/66/65 11/58/65
f 24/56/65 66/66/65 25/60/65
f 11/58/65 66/66/65 12/62/65
f 25/60/65 66/66/65 26/2/65
f 12/62/65 66/66/65 13/5/65
f 59/1/1 58/63/1 26/2/1
f 46/4/2 45/64/2 13/5/2
f 60/7/3 59/1/3 27/3/3
f 47/9/4 46/4/4 14/6/4
f 34/11/5 33/38/5 1/12/5
f 61/14/6 60/7/6 28/8/6
f 48/16/7 47/9/7 15/10/7
f 35/18/8 34/11/8 2/13/8
f 62/20/9 61/14/9 29/15/9
f 49/22/10 48/16/10 16/17/10
f 36/24/11 35/18/11 3/19/11
f 63/26/12 62/20/12 30/21/12
f 50/28/13 49/22/13 17/23/13
f 37/30/14 36/24/14 4/25/14
f 64/32/15 63/26/15 31/27/15
f 51/34/16 50/28/16 18/29/16
f 38/36/17 37/30/17 5/31/17
f 33/38/18 64/32/18 32/33/18
f 52/39/19 51/34/19 19/35/19
f 39/41/20 38/36/20 6/37/20
f 53/43/21 52/39/21 20/40/21
f 40/45/22 39/41/22 7/42/22
f 54/47/23 53/43/23 21/44/23
f 41/49/24 40/45/24 8/46/24
f 55/51/25 54/47/25 22/48/25
f 42/53/26 41/49/26 9/50/26
f 56/55/27 55/51/27 23/52/27
f 43/57/28 42/53/28 10/54/28
f 57/59/29 56/55/29 24/56/29
f 44/61/30 43/57/30 11/58/30
f 58/63/31 57/59/31 25/60/31
f 45/64/32 44/61/32 12/62/32
